<svg width="1920" height="614" viewBox="0 0 1920 614" fill="none" xmlns="http://www.w3.org/2000/svg">
<rect width="1920" height="614" fill="#D13831"/>
<path d="M1694 156.5C1694 168.926 1683.25 179 1670 179C1656.75 179 1646 168.926 1646 156.5C1646 144.074 1656.75 134 1670 134C1683.25 134 1694 144.074 1694 156.5ZM1655.25 156.5C1655.25 164.138 1661.85 170.331 1670 170.331C1678.15 170.331 1684.75 164.138 1684.75 156.5C1684.75 148.862 1678.15 142.669 1670 142.669C1661.85 142.669 1655.25 148.862 1655.25 156.5Z" fill="white" fill-opacity="0.3"/>
<path d="M1619 253.5C1619 268.688 1605.57 281 1589 281C1572.43 281 1559 268.688 1559 253.5C1559 238.312 1572.43 226 1589 226C1605.57 226 1619 238.312 1619 253.5ZM1570.64 253.5C1570.64 262.793 1578.86 270.327 1589 270.327C1599.14 270.327 1607.36 262.793 1607.36 253.5C1607.36 244.207 1599.14 236.673 1589 236.673C1578.86 236.673 1570.64 244.207 1570.64 253.5Z" fill="white" fill-opacity="0.45"/>
<path d="M1728.42 402.332C1723.99 400.193 1720.01 397.193 1716.74 393.522C1713.47 389.851 1710.97 385.592 1709.42 381.015C1707.87 376.439 1707.29 371.647 1707.72 366.946C1708.15 362.246 1709.58 357.74 1711.92 353.718C1714.26 349.696 1717.46 346.246 1721.31 343.589C1725.16 340.933 1729.58 339.127 1734.29 338.29C1738.99 337.452 1743.88 337.6 1748.63 338.724C1753.38 339.848 1757.9 341.923 1761.89 344.818L1755.29 353.938C1752.64 352.019 1749.65 350.643 1746.5 349.898C1743.35 349.153 1740.11 349.055 1736.99 349.61C1733.87 350.166 1730.94 351.362 1728.39 353.123C1725.84 354.885 1723.72 357.171 1722.16 359.837C1720.61 362.504 1719.66 365.49 1719.38 368.606C1719.09 371.722 1719.48 374.898 1720.51 377.932C1721.54 380.965 1723.19 383.789 1725.36 386.222C1727.52 388.655 1730.16 390.644 1733.1 392.062L1728.42 402.332Z" fill="white"/>
<path d="M1606 463.5C1606 487.524 1584.96 507 1559 507C1533.04 507 1512 487.524 1512 463.5C1512 439.476 1533.04 420 1559 420C1584.96 420 1606 439.476 1606 463.5ZM1531.27 463.5C1531.27 477.673 1543.69 489.162 1559 489.162C1574.31 489.162 1586.73 477.673 1586.73 463.5C1586.73 449.327 1574.31 437.838 1559 437.838C1543.69 437.838 1531.27 449.327 1531.27 463.5Z" fill="white"/>
<path d="M584.5 1.14276C584.5 33.5 539.423 82.1645 508.333 102.544C477.243 122.923 440.645 133.869 403.165 133.997C365.686 134.126 329.009 123.43 297.773 103.264C266.537 83.0971 223 37.5 223 1.14276L275.705 1.14134C286.196 25.5573 303.888 46.3962 326.543 61.0227C349.198 75.6493 375.799 83.4066 402.983 83.3137C430.166 83.2208 456.711 75.2818 479.26 60.5008C501.809 45.7198 519.35 24.7605 529.664 0.273438L584.5 1.14276Z" fill="#8E2622"/>
</svg>
